{
	"accessors": [
		{
			"bufferView": 0,
			"byteOffset": 0,
			"componentType": 5126,
			"count": 893,
			"max": [
				0.3619160056114197,
				1.0,
				0.3619160056114197
			],
			"min": [
				-0.3619160056114197,
				-1.0,
				-0.3619160056114197
			],
			"type": "VEC3"
		},
		{
			"bufferView": 1,
			"byteOffset": 0,
			"componentType": 5126,
			"count": 893,
			"type": "VEC3"
		},
		{
			"bufferView": 2,
			"byteOffset": 0,
			"componentType": 5126,
			"count": 893,
			"type": "VEC2"
		},
		{
			"bufferView": 3,
			"byteOffset": 0,
			"componentType": 5123,
			"count": 2142,
			"type": "SCALAR"
		}
	],
	"asset": {
		"extras": {
			"created": "Sat Jun 18 14:30:26 2022"
		},
		"generator": "Gestaltor 2022.2.2 Tagliatelle Community",
		"version": "2.0"
	},
	"bufferViews": [
		{
			"buffer": 0,
			"byteLength": 10716,
			"byteOffset": 0
		},
		{
			"buffer": 0,
			"byteLength": 10716,
			"byteOffset": 10716
		},
		{
			"buffer": 0,
			"byteLength": 7144,
			"byteOffset": 21432
		},
		{
			"buffer": 0,
			"byteLength": 4284,
			"byteOffset": 28576
		}
	],
	"buffers": [
		{
			"byteLength": 32860,
			"uri": "scene_low.bin"
		}
	],
	"images": [
		{
			"mimeType": "image/png",
			"name": "default_normal.png",
			"uri": "textures/low_textures/default_normal.png"
		},
		{
			"mimeType": "image/png",
			"name": "default_metallicRoughness.png",
			"uri": "textures/low_textures/default_metallicRoughness.png"
		},
		{
			"mimeType": "image/jpeg",
			"name": "default_baseColor.jpeg",
			"uri": "textures/low_textures/default_baseColor.jpeg"
		}
	],
	"materials": [
		{
			"doubleSided": true,
			"name": "default",
			"normalTexture": {
				"index": 0
			},
			"occlusionTexture": {
				"index": 1
			},
			"pbrMetallicRoughness": {
				"baseColorTexture": {
					"index": 2
				},
				"metallicRoughnessTexture": {
					"index": 1
				}
			}
		}
	],
	"meshes": [
		{
			"name": "defaultMaterial",
			"primitives": [
				{
					"attributes": {
						"NORMAL": 1,
						"POSITION": 0,
						"TEXCOORD_0": 2
					},
					"indices": 3,
					"material": 0,
					"mode": 4
				}
			]
		}
	],
	"nodes": [
		{
			"mesh": 0,
			"name": "defaultMaterial"
		},
		{
			"children": [
				0
			],
			"name": "Tourou_low"
		},
		{
			"children": [
				1
			],
			"name": "Collada visual scene group",
			"rotation": [
				0.7071068286895752,
				0.0,
				0.0,
				0.7071067094802856
			]
		},
		{
			"children": [
				2
			],
			"name": "Sketchfab_model",
			"rotation": [
				-0.7071068286895752,
				0.0,
				0.0,
				0.7071067094802856
			]
		}
	],
	"samplers": [
		{
			"magFilter": 9729,
			"minFilter": 9987
		}
	],
	"scene": 0,
	"scenes": [
		{
			"name": "Scene",
			"nodes": [
				3
			]
		}
	],
	"textures": [
		{
			"sampler": 0,
			"source": 0
		},
		{
			"sampler": 0,
			"source": 1
		},
		{
			"sampler": 0,
			"source": 2
		}
	]
}