{
	"accessors": [
		{
			"bufferView": 0,
			"byteOffset": 0,
			"componentType": 5126,
			"count": 905,
			"max": [
				1.0,
				0.6931589841842651,
				0.10625799745321274
			],
			"min": [
				-1.0,
				-0.6931589841842651,
				-0.10625799745321274
			],
			"type": "VEC3"
		},
		{
			"bufferView": 1,
			"byteOffset": 0,
			"componentType": 5126,
			"count": 905,
			"type": "VEC3"
		},
		{
			"bufferView": 2,
			"byteOffset": 0,
			"componentType": 5126,
			"count": 905,
			"type": "VEC2"
		},
		{
			"bufferView": 3,
			"byteOffset": 0,
			"componentType": 5123,
			"count": 1392,
			"type": "SCALAR"
		}
	],
	"asset": {
		"extras": {
			"created": "Mon Jun 20 03:29:33 2022"
		},
		"generator": "Gestaltor 2022.2.2 Tagliatelle Community",
		"version": "2.0"
	},
	"bufferViews": [
		{
			"buffer": 0,
			"byteLength": 10860,
			"byteOffset": 0
		},
		{
			"buffer": 0,
			"byteLength": 10860,
			"byteOffset": 10860
		},
		{
			"buffer": 0,
			"byteLength": 7240,
			"byteOffset": 21720
		},
		{
			"buffer": 0,
			"byteLength": 2784,
			"byteOffset": 28960
		}
	],
	"buffers": [
		{
			"byteLength": 31744,
			"uri": "scene_high.bin"
		}
	],
	"images": [
		{
			"mimeType": "image/png",
			"name": "Gate_Texture_normal.png",
			"uri": "textures/high_textures/Gate_Texture_normal.png"
		},
		{
			"mimeType": "image/png",
			"name": "Gate_Texture_metallicRoughness.png",
			"uri": "textures/high_textures/Gate_Texture_metallicRoughness.png"
		},
		{
			"mimeType": "image/jpeg",
			"name": "Gate_Texture_baseColor.jpeg",
			"uri": "textures/high_textures/Gate_Texture_baseColor.jpeg"
		}
	],
	"materials": [
		{
			"doubleSided": true,
			"name": "Gate_Texture",
			"normalTexture": {
				"index": 0
			},
			"occlusionTexture": {
				"index": 1
			},
			"pbrMetallicRoughness": {
				"baseColorTexture": {
					"index": 2
				},
				"metallicRoughnessTexture": {
					"index": 1
				}
			}
		}
	],
	"meshes": [
		{
			"name": "defaultMaterial",
			"primitives": [
				{
					"attributes": {
						"NORMAL": 1,
						"POSITION": 0,
						"TEXCOORD_0": 2
					},
					"indices": 3,
					"material": 0,
					"mode": 4
				}
			]
		}
	],
	"nodes": [
		{
			"mesh": 0,
			"name": "defaultMaterial"
		},
		{
			"children": [
				0
			],
			"name": "Roof_rtop_main_low"
		},
		{
			"children": [
				1
			],
			"name": "Collada visual scene group",
			"rotation": [
				0.7071068286895752,
				0.0,
				0.0,
				0.7071067094802856
			]
		},
		{
			"children": [
				2
			],
			"name": "Sketchfab_model",
			"rotation": [
				-0.7071068286895752,
				0.0,
				0.0,
				0.7071067094802856
			],
			"scale": [
				3.927964448928833,
				3.927964925765991,
				3.927964925765991
			],
			"translation": [
				0.0,
				2.5,
				0.0
			]
		}
	],
	"samplers": [
		{
			"magFilter": 9729,
			"minFilter": 9987
		}
	],
	"scene": 0,
	"scenes": [
		{
			"name": "Scene",
			"nodes": [
				3
			]
		}
	],
	"textures": [
		{
			"sampler": 0,
			"source": 0
		},
		{
			"sampler": 0,
			"source": 1
		},
		{
			"sampler": 0,
			"source": 2
		}
	]
}