{
	"accessors": [
		{
			"bufferView": 0,
			"byteOffset": 0,
			"componentType": 5126,
			"count": 1820,
			"max": [
				0.24060803651809692,
				0.24431979656219482,
				6.864710807800293
			],
			"min": [
				-0.24060803651809692,
				-0.22958552837371826,
				-0.16523204743862152
			],
			"type": "VEC3"
		},
		{
			"bufferView": 1,
			"byteOffset": 0,
			"componentType": 5126,
			"count": 1820,
			"type": "VEC3"
		},
		{
			"bufferView": 2,
			"byteOffset": 0,
			"componentType": 5126,
			"count": 1820,
			"type": "VEC2"
		},
		{
			"bufferView": 3,
			"byteOffset": 0,
			"componentType": 5123,
			"count": 1878,
			"type": "SCALAR"
		}
	],
	"asset": {
		"extras": {
			"created": "Sun Jun 19 06:48:37 2022"
		},
		"generator": "Gestaltor 2022.2.2 Tagliatelle Community",
		"version": "2.0"
	},
	"bufferViews": [
		{
			"buffer": 0,
			"byteLength": 21840,
			"byteOffset": 0
		},
		{
			"buffer": 0,
			"byteLength": 21840,
			"byteOffset": 21840
		},
		{
			"buffer": 0,
			"byteLength": 14560,
			"byteOffset": 43680
		},
		{
			"buffer": 0,
			"byteLength": 3756,
			"byteOffset": 58240
		}
	],
	"buffers": [
		{
			"byteLength": 61996,
			"uri": "scene_high.bin"
		}
	],
	"images": [
		{
			"mimeType": "image/jpeg",
			"name": "Wood_Plywood_Front_001_basecolor",
			"uri": "textures/high_textures/Wood_Plywood_Front_001_basecolor.jpg"
		}
	],
	"materials": [
		{
			"doubleSided": true,
			"name": "body.001",
			"pbrMetallicRoughness": {
				"baseColorTexture": {
					"index": 0
				},
				"metallicFactor": 0.0,
				"roughnessFactor": 0.8040408492088318
			}
		}
	],
	"meshes": [
		{
			"name": "Circle.001_body_0",
			"primitives": [
				{
					"attributes": {
						"NORMAL": 1,
						"POSITION": 0,
						"TEXCOORD_0": 2
					},
					"indices": 3,
					"material": 0,
					"mode": 4
				}
			]
		}
	],
	"nodes": [
		{
			"mesh": 0,
			"name": "Circle.001_body_0",
			"scale": [
				0.19999998807907104,
				0.20000001788139343,
				0.20000001788139343
			]
		},
		{
			"children": [
				0
			],
			"name": "Circle.001",
			"rotation": [
				-0.7071068286895752,
				0.0,
				0.0,
				0.7071067094802856
			],
			"scale": [
				100.0,
				99.99999237060547,
				99.99999237060547
			]
		},
		{
			"children": [
				1
			],
			"name": "RootNode.001"
		},
		{
			"children": [
				2
			],
			"name": "bamboo1.fbx.001",
			"rotation": [
				0.7071068286895752,
				0.0,
				0.0,
				0.7071067094802856
			]
		},
		{
			"children": [
				3
			],
			"name": "Sketchfab_model.001",
			"rotation": [
				-0.7071068286895752,
				0.0,
				0.0,
				0.7071067094802856
			]
		}
	],
	"samplers": [
		{
			"magFilter": 9729,
			"minFilter": 9987
		}
	],
	"scene": 0,
	"scenes": [
		{
			"name": "Scene",
			"nodes": [
				4
			]
		}
	],
	"textures": [
		{
			"sampler": 0,
			"source": 0
		}
	]
}